<svg width="293" height="238" viewBox="0 0 293 238" fill="none" xmlns="http://www.w3.org/2000/svg">
<g clip-path="url(#clip0_144_355)">
<path d="M148.252 64.4874H147.003V30.2291C147.003 27.6253 146.491 25.047 145.496 22.6414C144.501 20.2358 143.042 18.05 141.204 16.2088C139.365 14.3676 137.182 12.9071 134.78 11.9107C132.377 10.9142 129.803 10.4014 127.202 10.4014H54.721C52.1208 10.4014 49.546 10.9142 47.1437 11.9106C44.7414 12.9071 42.5586 14.3676 40.7199 16.2088C38.8812 18.0499 37.4227 20.2357 36.4277 22.6413C35.4326 25.0469 34.9204 27.6253 34.9204 30.2291V218.173C34.9204 223.431 37.0065 228.475 40.7199 232.193C44.4332 235.911 49.4695 238 54.721 238H127.202C132.454 238 137.49 235.911 141.203 232.193C144.917 228.475 147.003 223.431 147.003 218.173V88.873H148.252L148.252 64.4874Z" fill="#3F3D56"/>
<path d="M142.789 30.3674V218.034C142.789 221.962 141.231 225.728 138.458 228.505C135.685 231.282 131.924 232.842 128.002 232.842H55.1697C53.2279 232.842 51.3052 232.459 49.5113 231.715C47.7174 230.971 46.0875 229.88 44.7146 228.505C43.3417 227.13 42.2528 225.497 41.51 223.701C40.7671 221.904 40.3849 219.979 40.3853 218.034V30.3674C40.3849 28.423 40.7671 26.4975 41.5099 24.701C42.2528 22.9045 43.3417 21.2721 44.7146 19.8971C46.0875 18.522 47.7174 17.4312 49.5113 16.687C51.3052 15.9428 53.2279 15.5597 55.1697 15.5596H64.0079C63.5721 16.6278 63.4055 17.787 63.5228 18.9349C63.6401 20.0828 64.0377 21.1842 64.6805 22.1418C65.3234 23.0995 66.1917 23.8841 67.2088 24.4263C68.226 24.9686 69.3608 25.2518 70.5131 25.2511H112.037C113.189 25.2517 114.324 24.9684 115.341 24.426C116.358 23.8837 117.226 23.099 117.868 22.1413C118.511 21.1836 118.908 20.0822 119.025 18.9344C119.142 17.7865 118.975 16.6275 118.539 15.5596H128.002C131.924 15.5596 135.685 17.1198 138.458 19.8968C141.231 22.6738 142.789 26.4401 142.789 30.3674Z" fill="white"/>
<path d="M73.3052 65.9681C83.9989 65.9681 92.668 57.2872 92.668 46.5788C92.668 35.8704 83.9989 27.1895 73.3052 27.1895C62.6114 27.1895 53.9424 35.8704 53.9424 46.5788C53.9424 57.2872 62.6114 65.9681 73.3052 65.9681Z" fill="#FF6584"/>
<path d="M122.286 139.488C123.707 125.061 119.134 112.8 112.073 112.103C105.012 111.406 98.1362 122.536 96.7157 136.964C95.2951 151.391 99.8678 163.652 106.929 164.349C113.99 165.046 120.866 153.916 122.286 139.488Z" fill="#3F3D56"/>
<path d="M106.472 181.102C104.38 149.831 112.468 119.678 112.55 119.377L113.529 119.644C113.448 119.943 105.405 149.939 107.485 181.034L106.472 181.102Z" fill="#4D76FF"/>
<path d="M121.31 133.72L109.139 138.771L109.528 139.711L121.699 134.66L121.31 133.72Z" fill="#4D76FF"/>
<path d="M97.7185 134.524L97.1538 135.369L108.104 142.707L108.668 141.862L97.7185 134.524Z" fill="#4D76FF"/>
<path d="M107.755 97.3745C110.533 69.1562 101.59 45.1754 87.7792 43.8118C73.9684 42.4483 60.5201 64.2183 57.7417 92.4366C54.9633 120.655 63.9068 144.636 77.7176 145.999C91.5284 147.363 104.977 125.593 107.755 97.3745Z" fill="#E6E6E6"/>
<path d="M77.3069 178.733C73.2218 117.652 89.0184 58.7548 89.1784 58.167L90.1578 58.4343C89.9982 59.0206 74.2466 117.76 78.3198 178.666L77.3069 178.733Z" fill="#3F3D56"/>
<path d="M106.032 86.5405L82.2266 96.4199L82.6153 97.3592L106.421 87.4797L106.032 86.5405Z" fill="#3F3D56"/>
<path d="M59.4328 88.0661L58.8682 88.9111L80.285 103.262L80.8496 102.417L59.4328 88.0661Z" fill="#3F3D56"/>
<path d="M179.222 73.3795C183.024 34.7651 170.786 1.9492 151.887 0.0832637C132.988 -1.78268 114.585 28.0079 110.783 66.6224C106.981 105.237 119.22 138.053 138.119 139.919C157.018 141.785 175.42 111.994 179.222 73.3795Z" fill="#4D76FF"/>
<path d="M137.743 184.7C132.155 101.146 153.763 20.5803 153.982 19.7764L154.961 20.0437C154.743 20.8462 133.18 101.254 138.756 184.633L137.743 184.7Z" fill="#3F3D56"/>
<path d="M176.936 58.7279L144.36 72.2471L144.749 73.1863L177.325 59.6671L176.936 58.7279Z" fill="#3F3D56"/>
<path d="M112.993 60.7986L112.429 61.6436L141.736 81.2809L142.301 80.4359L112.993 60.7986Z" fill="#3F3D56"/>
<path d="M40.3853 183.648L39.7607 218.831C39.7607 227.156 47.0031 233.905 55.1698 233.905H128.002C136.169 233.905 143.414 227.156 143.414 218.831L142.789 183.957C106.072 169.705 72.1188 170.599 40.3853 183.648Z" fill="#4D76FF"/>
<path d="M195.761 61.3193L199.638 58.2144C196.626 57.8817 195.388 59.5264 194.882 60.8283C192.529 59.8499 189.968 61.1321 189.968 61.1321L197.724 63.9519C197.333 62.9053 196.652 61.992 195.761 61.3193Z" fill="#3F3D56"/>
<path d="M101.007 33.9082L104.884 30.8032C101.872 30.4705 100.635 32.1153 100.128 33.4171C97.7752 32.4388 95.2139 33.721 95.2139 33.721L102.971 36.5408C102.579 35.4941 101.898 34.5809 101.007 33.9082Z" fill="#3F3D56"/>
<path d="M255.561 21.6787L259.438 18.5738C256.426 18.241 255.189 19.8858 254.682 21.1876C252.329 20.2093 249.768 21.4915 249.768 21.4915L257.525 24.3113C257.133 23.2647 256.452 22.3514 255.561 21.6787Z" fill="#3F3D56"/>
<path d="M249.432 164.486L249.366 169.775C249.36 170.286 249.24 170.789 249.017 171.247C248.793 171.706 248.47 172.11 248.072 172.428C247.674 172.747 247.21 172.974 246.714 173.091C246.218 173.209 245.702 173.215 245.203 173.109C244.692 173 244.212 172.777 243.8 172.455C243.388 172.133 243.054 171.722 242.824 171.252C242.594 170.783 242.473 170.267 242.472 169.744C242.47 169.22 242.587 168.704 242.814 168.232L244.579 164.568L248.239 137.978L246.834 120.211L253.704 119.881L255.165 140.205L249.432 164.486Z" fill="#FFB9B9"/>
<path d="M215.772 192.587L209.167 228.202L212.47 227.693L224.663 191.824L215.772 192.587Z" fill="#FFB9B9"/>
<path d="M247.4 192.969L251.592 229.474L255.148 228.965L256.037 192.715L247.4 192.969Z" fill="#FFB9B9"/>
<path d="M284.998 182.284C275.528 189.902 264.441 201.091 253.401 196.923C241.881 192.573 228.586 192.298 213.612 194.241C217.189 171.777 221.605 150.523 227.33 131.152L246.383 134.205C246.678 134.531 245.967 136.295 246.256 136.622C251.612 142.661 257.075 147.343 260.376 153.563C265.239 162.822 271.822 171.066 279.77 177.855L284.998 182.284Z" fill="#E6E6E6"/>
<path opacity="0.5" d="M293 186.227C283.531 194.061 263.679 207.138 252.639 202.852C241.119 198.379 227.443 198.73 212.469 200.728C213.18 196.139 213.938 191.579 214.743 187.048C217.988 168.795 277.147 175.206 285.125 182.157L293 186.227Z" fill="#E6E6E6"/>
<path d="M254.867 121.02C251.305 119.977 247.674 120.494 243.994 122.096L245.327 112.066C245.192 110.961 245.5 109.847 246.185 108.97C246.87 108.093 247.874 107.525 248.978 107.39C250.081 107.254 251.193 107.563 252.069 108.249C252.945 108.935 253.513 109.941 253.648 111.046L254.867 121.02Z" fill="#2F2E41"/>
<path d="M238.636 99.9899C242.564 99.9899 245.749 96.8009 245.749 92.867C245.749 88.9332 242.564 85.7441 238.636 85.7441C234.707 85.7441 231.522 88.9332 231.522 92.867C231.522 96.8009 234.707 99.9899 238.636 99.9899Z" fill="#FFB9B9"/>
<path d="M251.846 112.709L236.222 109.021C238.541 105.682 238.067 101.768 236.222 97.5732L243.843 96.0469C244.687 98.9424 245.71 101.592 247.146 103.679L251.846 112.709Z" fill="#FFB9B9"/>
<path d="M246.384 135.223L227.077 132.425L227.719 128.804C227.414 119.371 228.967 111.65 231.903 105.205L248.924 106.223C251.108 107.972 252.651 110.396 253.312 113.116C253.974 115.837 253.717 118.7 252.581 121.259L246.638 132.933L246.384 135.223Z" fill="#2F2E41"/>
<path d="M212.918 237.387C212.027 237.794 211.28 234.495 210.529 235.234C208.427 237.303 205.208 237.754 202.402 236.85L203.384 236.839C203.215 236.785 203.058 236.697 202.924 236.58C202.79 236.463 202.68 236.32 202.603 236.16C202.526 235.999 202.481 235.825 202.473 235.647C202.465 235.469 202.493 235.291 202.556 235.125C202.63 234.925 202.752 234.747 202.911 234.605C203.07 234.463 203.261 234.362 203.467 234.31L205.703 233.75L209.213 227.569L213.039 227.084L213.135 227.242C213.875 228.436 214.352 229.774 214.534 231.166C214.716 232.559 214.6 233.975 214.192 235.319C213.874 236.34 213.441 237.147 212.918 237.387Z" fill="#2F2E41"/>
<path d="M255.088 237.387C254.197 237.794 253.451 234.495 252.699 235.234C250.597 237.303 247.378 237.754 244.572 236.85L245.554 236.839C245.385 236.785 245.228 236.697 245.094 236.58C244.96 236.463 244.851 236.32 244.773 236.16C244.696 235.999 244.652 235.825 244.644 235.647C244.636 235.469 244.664 235.291 244.726 235.125C244.801 234.925 244.923 234.747 245.082 234.605C245.24 234.463 245.431 234.362 245.638 234.31L247.873 233.75L251.384 227.569L255.209 227.084L255.306 227.242C256.045 228.436 256.522 229.774 256.704 231.166C256.887 232.559 256.77 233.975 256.363 235.319C256.045 236.34 255.611 237.147 255.088 237.387Z" fill="#2F2E41"/>
<path d="M247.489 122.884H247.307C243.872 119.904 240.887 116.562 243.297 112.379C241.253 107.183 238.973 101.786 239.111 98.4478C239.256 95.9794 238.462 93.5477 236.89 91.641C234.717 89.0996 234.234 87.9647 230.266 88.9257C230.252 87.9053 230.445 86.8925 230.834 85.9491C231.222 85.0057 231.799 84.1513 232.527 83.4378C233.256 82.7243 234.122 82.1666 235.073 81.7985C236.023 81.4305 237.039 81.2599 238.057 81.297L240.536 81.3872C242.433 81.4563 248.494 82.2326 249.795 83.4858C250.455 84.1425 250.954 84.9431 251.254 85.8249C251.554 86.7067 251.646 87.6459 251.523 88.5694C251.28 90.6414 251.933 92.4709 253.677 94.005C257.016 97.4627 258.393 101.05 256.5 104.855C255.071 108.882 255.139 112.198 258.826 113.791C260.023 118.392 252.237 122.884 247.489 122.884Z" fill="#2F2E41"/>
<path d="M210.762 145.016C211.748 144.104 211.039 141.732 209.179 139.718C207.32 137.705 205.014 136.813 204.028 137.725C203.043 138.638 203.752 141.01 205.611 143.023C207.471 145.037 209.777 145.929 210.762 145.016Z" fill="#3F3D56"/>
<path d="M217.27 129.355C221.207 129.355 224.399 126.159 224.399 122.216C224.399 118.273 221.207 115.077 217.27 115.077C213.332 115.077 210.14 118.273 210.14 122.216C210.14 126.159 213.332 129.355 217.27 129.355Z" fill="#4D76FF"/>
<path d="M229.241 167.709C226.044 166.259 223.066 164.366 220.394 162.088C214.999 157.417 211.081 150.713 210.789 143.468C210.51 136.515 213.452 129.979 216.564 123.937C216.956 123.177 217.351 122.419 217.751 121.663C217.903 121.374 218.374 121.568 218.221 121.858C214.993 127.994 211.605 134.478 211.299 141.554C210.976 149.011 214.614 156.12 220.029 161.082C222.822 163.599 225.986 165.671 229.409 167.225" fill="#3F3D56"/>
<path d="M214.549 122.022L214.218 122.099L215.291 126.752L215.622 126.676L214.549 122.022Z" fill="#3F3D56"/>
<path d="M219.448 160.013C220.78 159.846 221.584 157.505 221.244 154.783C220.903 152.062 219.548 149.992 218.216 150.159C216.884 150.326 216.08 152.667 216.421 155.388C216.761 158.109 218.116 160.18 219.448 160.013Z" fill="#3F3D56"/>
<path d="M227.331 159.39L226.623 164.632C226.555 165.138 226.376 165.622 226.098 166.05C225.82 166.478 225.451 166.839 225.017 167.107C224.583 167.376 224.095 167.544 223.588 167.6C223.082 167.657 222.569 167.6 222.086 167.434C221.592 167.264 221.143 166.984 220.773 166.614C220.403 166.245 220.122 165.796 219.95 165.302C219.779 164.807 219.722 164.281 219.784 163.761C219.846 163.241 220.025 162.743 220.307 162.303L222.504 158.881L229.363 132.933L230.125 115.126L236.984 115.635L235.968 135.986L227.331 159.39Z" fill="#FFB9B9"/>
<path d="M237.873 118.942C234.464 117.473 230.797 117.545 226.95 118.688L229.49 108.894C229.49 107.78 229.932 106.713 230.718 105.926C231.504 105.139 232.57 104.696 233.682 104.696C234.793 104.696 235.86 105.139 236.646 105.926C237.432 106.713 237.873 107.78 237.873 108.894V118.942Z" fill="#2F2E41"/>
</g>
<defs>
<clipPath id="clip0_144_355">
<rect width="293" height="238" fill="white"/>
</clipPath>
</defs>
</svg>
