<svg width="24" height="24" viewBox="0 0 24 24" fill="none" xmlns="http://www.w3.org/2000/svg">
<path d="M18.4401 3.05957H5.56006C4.89759 3.06142 4.26277 3.3254 3.79433 3.79384C3.32589 4.26229 3.06191 4.8971 3.06006 5.55957V18.4396C3.06191 19.102 3.32589 19.7369 3.79433 20.2053C4.26277 20.6737 4.89759 20.9377 5.56006 20.9396H18.4401C19.1031 20.9396 19.739 20.6762 20.2078 20.2073C20.6767 19.7385 20.9401 19.1026 20.9401 18.4396V5.55957C20.9401 4.89653 20.6767 4.26064 20.2078 3.7918C19.739 3.32296 19.1031 3.05957 18.4401 3.05957ZM19.9401 18.4396C19.9372 18.8365 19.7782 19.2164 19.4975 19.497C19.2169 19.7777 18.837 19.9367 18.4401 19.9396H5.56006C5.16312 19.9367 4.78326 19.7777 4.50258 19.497C4.2219 19.2164 4.06294 18.8365 4.06006 18.4396V5.55957C4.06294 5.16264 4.2219 4.78278 4.50258 4.50209C4.78326 4.22141 5.16312 4.06245 5.56006 4.05957H18.4401C18.837 4.06245 19.2169 4.22141 19.4975 4.50209C19.7782 4.78278 19.9372 5.16264 19.9401 5.55957V18.4396Z" fill="#677990"/>
<path d="M6.37598 10.748C6.37598 10.4828 6.48133 10.2285 6.66887 10.0409C6.85641 9.8534 7.11076 9.74805 7.37598 9.74805C7.64119 9.74805 7.89555 9.8534 8.08308 10.0409C8.27062 10.2285 8.37598 10.4828 8.37598 10.748V17.248C8.37598 17.5133 8.27062 17.7676 8.08308 17.9552C7.89555 18.1427 7.64119 18.248 7.37598 18.248C7.11076 18.248 6.85641 18.1427 6.66887 17.9552C6.48133 17.7676 6.37598 17.5133 6.37598 17.248V10.748Z" fill="#677990"/>
<path d="M7.37598 7.74414C7.92826 7.74414 8.37598 7.29643 8.37598 6.74414C8.37598 6.19186 7.92826 5.74414 7.37598 5.74414C6.82369 5.74414 6.37598 6.19186 6.37598 6.74414C6.37598 7.29643 6.82369 7.74414 7.37598 7.74414Z" fill="#677990"/>
<path d="M17.6201 13.3704V17.2504C17.6201 17.5156 17.5148 17.7699 17.3272 17.9575C17.1397 18.145 16.8854 18.2504 16.6201 18.2504C16.3549 18.2504 16.1006 18.145 15.913 17.9575C15.7255 17.7699 15.6201 17.5156 15.6201 17.2504V13.3704C15.6201 12.942 15.45 12.5312 15.1471 12.2284C14.8442 11.9255 14.4335 11.7554 14.0051 11.7554C13.5768 11.7554 13.166 11.9255 12.8632 12.2284C12.5603 12.5312 12.3901 12.942 12.3901 13.3704V17.2504C12.3901 17.5156 12.2848 17.7699 12.0972 17.9575C11.9097 18.145 11.6554 18.2504 11.3901 18.2504C11.1249 18.2504 10.8706 18.145 10.683 17.9575C10.4955 17.7699 10.3901 17.5156 10.3901 17.2504V10.7504C10.3943 10.4864 10.5009 10.2345 10.6876 10.0478C10.8742 9.86116 11.1262 9.75448 11.3901 9.75035C11.5595 9.74571 11.727 9.78694 11.8749 9.86968C12.0227 9.95241 12.1455 10.0736 12.2301 10.2204C12.78 9.90839 13.4021 9.74631 14.0342 9.75035C14.6664 9.75439 15.2864 9.9244 15.8321 10.2434C16.3779 10.5623 16.8304 11.0191 17.1441 11.5678C17.4579 12.1166 17.6221 12.7382 17.6201 13.3704Z" fill="#677990"/>
</svg>
