<svg width="16" height="16" viewBox="0 0 16 16" fill="none" xmlns="http://www.w3.org/2000/svg">
<path d="M8.00016 4.66634C8.36835 4.66634 8.66683 4.36786 8.66683 3.99967C8.66683 3.63148 8.36835 3.33301 8.00016 3.33301C7.63197 3.33301 7.3335 3.63148 7.3335 3.99967C7.3335 4.36786 7.63197 4.66634 8.00016 4.66634Z" fill="#4D76FF"/>
<path d="M4 11.333H12V12.6663H4V11.333ZM6.66667 7.88634L8.528 9.74901L11.1493 7.12567L12 7.99967V5.33301H9.33333L10.2067 6.18301L8.52733 7.86234L6.66667 5.99967L4 8.66634L4.94267 9.60901L6.66667 7.88634Z" fill="#4D76FF"/>
<path d="M12.6668 1.99967H10.4682C10.4027 1.9011 10.3315 1.80649 10.2548 1.71633L10.2482 1.70833C9.75835 1.13783 9.0692 0.775857 8.3215 0.696334C8.10918 0.655909 7.89114 0.655909 7.67883 0.696334C6.93112 0.775857 6.24198 1.13783 5.75216 1.70833L5.7455 1.71633C5.66888 1.80627 5.59764 1.90066 5.53216 1.999L3.3335 1.99967C2.80323 2.0002 2.29483 2.21108 1.91987 2.58604C1.54491 2.961 1.33403 3.4694 1.3335 3.99967V13.333C1.33403 13.8633 1.54491 14.3717 1.91987 14.7466C2.29483 15.1216 2.80323 15.3325 3.3335 15.333H12.6668C13.1971 15.3325 13.7055 15.1216 14.0805 14.7466C14.4554 14.3717 14.6663 13.8633 14.6668 13.333V3.99967C14.6663 3.4694 14.4554 2.961 14.0805 2.58604C13.7055 2.21108 13.1971 2.0002 12.6668 1.99967ZM13.3335 13.333C13.3335 13.5098 13.2633 13.6794 13.1382 13.8044C13.0132 13.9294 12.8436 13.9997 12.6668 13.9997H3.3335C3.15674 13.9995 2.98727 13.9292 2.86229 13.8042C2.7373 13.6792 2.66701 13.5098 2.66683 13.333V3.99967C2.66701 3.82291 2.7373 3.65344 2.86229 3.52846C2.98727 3.40347 3.15674 3.33318 3.3335 3.333H6.36683C6.44333 2.95624 6.64774 2.61751 6.94541 2.37421C7.24308 2.13091 7.61571 1.998 8.00016 1.998C8.38461 1.998 8.75725 2.13091 9.05492 2.37421C9.35259 2.61751 9.55699 2.95624 9.6335 3.333H12.6668C12.8436 3.33318 13.0131 3.40347 13.138 3.52846C13.263 3.65344 13.3333 3.82291 13.3335 3.99967V13.333Z" fill="#4D76FF"/>
</svg>
