<svg width="27" height="28" viewBox="0 0 27 28" fill="none" xmlns="http://www.w3.org/2000/svg">
<g filter="url(#filter0_d_127_463)">
<path d="M4 3.375C4 2.74511 4.25022 2.14102 4.69562 1.69562C5.14102 1.25022 5.74511 1 6.375 1H13.5C14.1299 1 14.734 1.25022 15.1794 1.69562C15.6248 2.14102 15.875 2.74511 15.875 3.375V4.5625H20.625C21.2549 4.5625 21.859 4.81272 22.3044 5.25812C22.7498 5.70352 23 6.30761 23 6.9375V18.8125C23 19.1274 22.8749 19.4295 22.6522 19.6522C22.4295 19.8749 22.1274 20 21.8125 20H5.1875C4.87256 20 4.57051 19.8749 4.34781 19.6522C4.12511 19.4295 4 19.1274 4 18.8125V3.375ZM15.875 18.8125H18.25V16.4375H15.875V18.8125ZM19.4375 18.8125H21.8125V6.9375C21.8125 6.62256 21.6874 6.32051 21.4647 6.09781C21.242 5.87511 20.9399 5.75 20.625 5.75H13.5C13.1851 5.75 12.883 5.87511 12.6603 6.09781C12.4376 6.32051 12.3125 6.62256 12.3125 6.9375V18.8125H14.6875V16.4375C14.6875 16.1226 14.8126 15.8205 15.0353 15.5978C15.258 15.3751 15.5601 15.25 15.875 15.25H18.25C18.5649 15.25 18.867 15.3751 19.0897 15.5978C19.3124 15.8205 19.4375 16.1226 19.4375 16.4375V18.8125ZM14.6875 3.375C14.6875 3.06006 14.5624 2.75801 14.3397 2.53531C14.117 2.31261 13.8149 2.1875 13.5 2.1875H6.375C6.06006 2.1875 5.75801 2.31261 5.53531 2.53531C5.31261 2.75801 5.1875 3.06006 5.1875 3.375V18.8125H11.125V6.9375C11.125 6.30761 11.3752 5.70352 11.8206 5.25812C12.266 4.81272 12.8701 4.5625 13.5 4.5625H14.6875V3.375ZM15.875 9.01562C15.875 9.25183 15.7812 9.47837 15.6141 9.64539C15.4471 9.81242 15.2206 9.90625 14.9844 9.90625C14.7482 9.90625 14.5216 9.81242 14.3546 9.64539C14.1876 9.47837 14.0938 9.25183 14.0938 9.01562C14.0938 8.77942 14.1876 8.55288 14.3546 8.38586C14.5216 8.21883 14.7482 8.125 14.9844 8.125C15.2206 8.125 15.4471 8.21883 15.6141 8.38586C15.7812 8.55288 15.875 8.77942 15.875 9.01562ZM7.85938 9.90625C8.09558 9.90625 8.32212 9.81242 8.48914 9.64539C8.65617 9.47837 8.75 9.25183 8.75 9.01562C8.75 8.77942 8.65617 8.55288 8.48914 8.38586C8.32212 8.21883 8.09558 8.125 7.85938 8.125C7.62317 8.125 7.39663 8.21883 7.22961 8.38586C7.06258 8.55288 6.96875 8.77942 6.96875 9.01562C6.96875 9.25183 7.06258 9.47837 7.22961 9.64539C7.39663 9.81242 7.62317 9.90625 7.85938 9.90625ZM8.75 5.45312C8.75 5.68933 8.65617 5.91587 8.48914 6.08289C8.32212 6.24992 8.09558 6.34375 7.85938 6.34375C7.62317 6.34375 7.39663 6.24992 7.22961 6.08289C7.06258 5.91587 6.96875 5.68933 6.96875 5.45312C6.96875 5.21692 7.06258 4.99038 7.22961 4.82336C7.39663 4.65633 7.62317 4.5625 7.85938 4.5625C8.09558 4.5625 8.32212 4.65633 8.48914 4.82336C8.65617 4.99038 8.75 5.21692 8.75 5.45312ZM14.9844 13.4688C15.1013 13.4688 15.2171 13.4457 15.3252 13.401C15.4333 13.3562 15.5314 13.2906 15.6141 13.2079C15.6968 13.1252 15.7624 13.027 15.8072 12.919C15.852 12.8109 15.875 12.6951 15.875 12.5781C15.875 12.4612 15.852 12.3454 15.8072 12.2373C15.7624 12.1292 15.6968 12.0311 15.6141 11.9484C15.5314 11.8657 15.4333 11.8001 15.3252 11.7553C15.2171 11.7105 15.1013 11.6875 14.9844 11.6875C14.7482 11.6875 14.5216 11.7813 14.3546 11.9484C14.1876 12.1154 14.0938 12.3419 14.0938 12.5781C14.0938 12.8143 14.1876 13.0409 14.3546 13.2079C14.5216 13.3749 14.7482 13.4687 14.9844 13.4688ZM8.75 16.1406C8.75 16.3768 8.65617 16.6034 8.48914 16.7704C8.32212 16.9374 8.09558 17.0312 7.85938 17.0312C7.62317 17.0312 7.39663 16.9374 7.22961 16.7704C7.06258 16.6034 6.96875 16.3768 6.96875 16.1406C6.96875 15.9044 7.06258 15.6779 7.22961 15.5109C7.39663 15.3438 7.62317 15.25 7.85938 15.25C8.09558 15.25 8.32212 15.3438 8.48914 15.5109C8.65617 15.6779 8.75 15.9044 8.75 16.1406ZM7.85938 13.4688C7.97633 13.4688 8.09215 13.4457 8.2002 13.401C8.30826 13.3562 8.40644 13.2906 8.48914 13.2079C8.57184 13.1252 8.63745 13.027 8.68221 12.919C8.72696 12.8109 8.75 12.6951 8.75 12.5781C8.75 12.4612 8.72696 12.3454 8.68221 12.2373C8.63745 12.1292 8.57184 12.0311 8.48914 11.9484C8.40644 11.8657 8.30826 11.8001 8.2002 11.7553C8.09215 11.7105 7.97633 11.6875 7.85938 11.6875C7.62317 11.6875 7.39663 11.7813 7.22961 11.9484C7.06258 12.1154 6.96875 12.3419 6.96875 12.5781C6.96875 12.8143 7.06258 13.0409 7.22961 13.2079C7.39663 13.3749 7.62317 13.4687 7.85938 13.4688ZM20.0312 9.01562C20.0312 9.25183 19.9374 9.47837 19.7704 9.64539C19.6034 9.81242 19.3768 9.90625 19.1406 9.90625C18.9044 9.90625 18.6779 9.81242 18.5109 9.64539C18.3438 9.47837 18.25 9.25183 18.25 9.01562C18.25 8.77942 18.3438 8.55288 18.5109 8.38586C18.6779 8.21883 18.9044 8.125 19.1406 8.125C19.3768 8.125 19.6034 8.21883 19.7704 8.38586C19.9374 8.55288 20.0312 8.77942 20.0312 9.01562ZM19.1406 13.4688C19.2576 13.4688 19.3734 13.4457 19.4815 13.401C19.5895 13.3562 19.6877 13.2906 19.7704 13.2079C19.8531 13.1252 19.9187 13.027 19.9635 12.919C20.0082 12.8109 20.0312 12.6951 20.0312 12.5781C20.0312 12.4612 20.0082 12.3454 19.9635 12.2373C19.9187 12.1292 19.8531 12.0311 19.7704 11.9484C19.6877 11.8657 19.5895 11.8001 19.4815 11.7553C19.3734 11.7105 19.2576 11.6875 19.1406 11.6875C18.9044 11.6875 18.6779 11.7813 18.5109 11.9484C18.3438 12.1154 18.25 12.3419 18.25 12.5781C18.25 12.8143 18.3438 13.0409 18.5109 13.2079C18.6779 13.3749 18.9044 13.4687 19.1406 13.4688Z" fill="#677990"/>
</g>
<defs>
<filter id="filter0_d_127_463" x="0" y="0" width="28" height="28" filterUnits="userSpaceOnUse" color-interpolation-filters="sRGB">
<feFlood flood-opacity="0" result="BackgroundImageFix"/>
<feColorMatrix in="SourceAlpha" type="matrix" values="0 0 0 0 0 0 0 0 0 0 0 0 0 0 0 0 0 0 127 0" result="hardAlpha"/>
<feOffset dy="4"/>
<feGaussianBlur stdDeviation="2"/>
<feComposite in2="hardAlpha" operator="out"/>
<feColorMatrix type="matrix" values="0 0 0 0 0 0 0 0 0 0 0 0 0 0 0 0 0 0 0.25 0"/>
<feBlend mode="normal" in2="BackgroundImageFix" result="effect1_dropShadow_127_463"/>
<feBlend mode="normal" in="SourceGraphic" in2="effect1_dropShadow_127_463" result="shape"/>
</filter>
</defs>
</svg>
