<svg width="16" height="16" viewBox="0 0 16 16" fill="none" xmlns="http://www.w3.org/2000/svg">
<g clip-path="url(#clip0_121_408)">
<path d="M10.6665 10.6663C10.6665 9.92967 8.57717 9.33301 5.99984 9.33301M10.6665 10.6663C10.6665 11.403 8.57717 11.9997 5.99984 11.9997C3.4225 11.9997 1.33317 11.403 1.33317 10.6663M10.6665 10.6663V13.9577C10.6665 14.717 8.57717 15.333 5.99984 15.333C3.4225 15.333 1.33317 14.7177 1.33317 13.9577V10.6663M10.6665 10.6663C13.2158 10.6663 15.3332 10.0083 15.3332 9.33301V2.66634M5.99984 9.33301C3.4225 9.33301 1.33317 9.92967 1.33317 10.6663M5.99984 9.33301C3.0545 9.33301 0.666504 8.67501 0.666504 7.99967V4.66634M5.99984 3.33301C3.0545 3.33301 0.666504 3.92967 0.666504 4.66634M0.666504 4.66634C0.666504 5.40301 3.0545 5.99967 5.99984 5.99967C5.99984 6.67501 8.1685 7.33301 10.7178 7.33301C13.2665 7.33301 15.3332 6.67501 15.3332 5.99967M15.3332 2.66634C15.3332 1.92967 13.2665 1.33301 10.7178 1.33301C8.1685 1.33301 6.1025 1.92967 6.1025 2.66634M15.3332 2.66634C15.3332 3.40301 13.2665 3.99967 10.7178 3.99967C8.16917 3.99967 6.1025 3.40301 6.1025 2.66634M6.1025 2.66634V9.44367" stroke="#4D76FF"/>
</g>
<defs>
<clipPath id="clip0_121_408">
<rect width="16" height="16" fill="white"/>
</clipPath>
</defs>
</svg>
