<svg width="16" height="16" viewBox="0 0 16 16" fill="none" xmlns="http://www.w3.org/2000/svg">
<path d="M4.47996 6.07641L2.17121 8.00016L4.47996 9.92391C4.55653 9.98666 4.61992 10.0639 4.66647 10.1513C4.71302 10.2387 4.74182 10.3344 4.7512 10.433C4.76057 10.5315 4.75035 10.6309 4.72111 10.7255C4.69187 10.8201 4.6442 10.9079 4.58084 10.984C4.51748 11.0601 4.43969 11.1228 4.35195 11.1687C4.26421 11.2146 4.16827 11.2426 4.06964 11.2512C3.97102 11.2598 3.87167 11.2487 3.77733 11.2187C3.68299 11.1888 3.59552 11.1404 3.51996 11.0764L0.519963 8.57641C0.43547 8.50603 0.367489 8.41792 0.320836 8.31834C0.274183 8.21876 0.25 8.11013 0.25 8.00016C0.25 7.89019 0.274183 7.78157 0.320836 7.68199C0.367489 7.5824 0.43547 7.4943 0.519963 7.42391L3.51996 4.92391C3.67301 4.79849 3.86942 4.73863 4.0664 4.75737C4.26339 4.77612 4.44498 4.87195 4.57162 5.02398C4.69827 5.17602 4.7597 5.37195 4.74253 5.56907C4.72536 5.7662 4.63098 5.94856 4.47996 6.07641ZM15.48 7.42391L12.48 4.92391C12.4044 4.85995 12.3169 4.81157 12.2226 4.78158C12.1283 4.75158 12.0289 4.74056 11.9303 4.74915C11.8317 4.75774 11.7357 4.78577 11.648 4.83162C11.5602 4.87748 11.4824 4.94025 11.4191 5.01631C11.3557 5.09237 11.3081 5.18023 11.2788 5.27481C11.2496 5.36939 11.2394 5.46882 11.2487 5.56737C11.2581 5.66592 11.2869 5.76164 11.3335 5.84901C11.38 5.93638 11.4434 6.01366 11.52 6.07641L13.8287 8.00016L11.52 9.92391C11.4434 9.98666 11.38 10.0639 11.3335 10.1513C11.2869 10.2387 11.2581 10.3344 11.2487 10.433C11.2394 10.5315 11.2496 10.6309 11.2788 10.7255C11.3081 10.8201 11.3557 10.9079 11.4191 10.984C11.4824 11.0601 11.5602 11.1228 11.648 11.1687C11.7357 11.2146 11.8317 11.2426 11.9303 11.2512C12.0289 11.2598 12.1283 11.2487 12.2226 11.2187C12.3169 11.1888 12.4044 11.1404 12.48 11.0764L15.48 8.57641C15.5645 8.50603 15.6324 8.41792 15.6791 8.31834C15.7257 8.21876 15.7499 8.11013 15.7499 8.00016C15.7499 7.89019 15.7257 7.78157 15.6791 7.68199C15.6324 7.5824 15.5645 7.4943 15.48 7.42391ZM10.2562 1.79516C10.1636 1.76149 10.0653 1.74639 9.96691 1.75073C9.86849 1.75506 9.77189 1.77874 9.68263 1.82041C9.59336 1.86208 9.51318 1.92093 9.44667 1.9936C9.38015 2.06626 9.3286 2.15132 9.29496 2.24391L5.29496 13.2439C5.22716 13.4308 5.23634 13.637 5.32049 13.8171C5.40464 13.9972 5.55686 14.1366 5.74371 14.2045C5.82575 14.2348 5.91252 14.2503 5.99996 14.2502C6.15395 14.2502 6.30421 14.2028 6.43034 14.1145C6.55647 14.0261 6.65235 13.9011 6.70496 13.7564L10.705 2.75641C10.7386 2.66383 10.7537 2.56552 10.7494 2.46711C10.7451 2.36869 10.7214 2.27209 10.6797 2.18283C10.638 2.09356 10.5792 2.01338 10.5065 1.94686C10.4339 1.88035 10.3488 1.8288 10.2562 1.79516Z" fill="#4D76FF"/>
</svg>
