<svg width="24" height="24" viewBox="0 0 24 24" fill="none" xmlns="http://www.w3.org/2000/svg">
<path d="M21 4.6875H3C2.85082 4.6875 2.70774 4.74676 2.60225 4.85225C2.49676 4.95774 2.4375 5.10082 2.4375 5.25V18C2.4375 18.3481 2.57578 18.6819 2.82192 18.9281C3.06806 19.1742 3.4019 19.3125 3.75 19.3125H20.25C20.5981 19.3125 20.9319 19.1742 21.1781 18.9281C21.4242 18.6819 21.5625 18.3481 21.5625 18V5.25C21.5625 5.10082 21.5032 4.95774 21.3977 4.85225C21.2923 4.74676 21.1492 4.6875 21 4.6875ZM12 12.7369L4.44562 5.8125H19.5544L12 12.7369ZM9.53156 12L3.5625 17.4713V6.52875L9.53156 12ZM10.3641 12.7631L11.625 13.9144C11.7287 14.0092 11.8641 14.0619 12.0047 14.0619C12.1452 14.0619 12.2807 14.0092 12.3844 13.9144L13.6406 12.7631L19.5544 18.1875H4.44656L10.3641 12.7631ZM14.4684 12L20.4375 6.52875V17.4713L14.4684 12Z" fill="#677990"/>
</svg>
