<svg width="19" height="19" viewBox="0 0 19 19" fill="none" xmlns="http://www.w3.org/2000/svg">
<path d="M0 2.375C0 1.74511 0.250222 1.14102 0.695621 0.695621C1.14102 0.250222 1.74511 0 2.375 0H9.5C10.1299 0 10.734 0.250222 11.1794 0.695621C11.6248 1.14102 11.875 1.74511 11.875 2.375V3.5625H16.625C17.2549 3.5625 17.859 3.81272 18.3044 4.25812C18.7498 4.70352 19 5.30761 19 5.9375V17.8125C19 18.1274 18.8749 18.4295 18.6522 18.6522C18.4295 18.8749 18.1274 19 17.8125 19H1.1875C0.872555 19 0.57051 18.8749 0.347811 18.6522C0.125111 18.4295 0 18.1274 0 17.8125V2.375ZM11.875 17.8125H14.25V15.4375H11.875V17.8125ZM15.4375 17.8125H17.8125V5.9375C17.8125 5.62256 17.6874 5.32051 17.4647 5.09781C17.242 4.87511 16.9399 4.75 16.625 4.75H9.5C9.18506 4.75 8.88301 4.87511 8.66031 5.09781C8.43761 5.32051 8.3125 5.62256 8.3125 5.9375V17.8125H10.6875V15.4375C10.6875 15.1226 10.8126 14.8205 11.0353 14.5978C11.258 14.3751 11.5601 14.25 11.875 14.25H14.25C14.5649 14.25 14.867 14.3751 15.0897 14.5978C15.3124 14.8205 15.4375 15.1226 15.4375 15.4375V17.8125ZM10.6875 2.375C10.6875 2.06006 10.5624 1.75801 10.3397 1.53531C10.117 1.31261 9.81494 1.1875 9.5 1.1875H2.375C2.06006 1.1875 1.75801 1.31261 1.53531 1.53531C1.31261 1.75801 1.1875 2.06006 1.1875 2.375V17.8125H7.125V5.9375C7.125 5.30761 7.37522 4.70352 7.82062 4.25812C8.26602 3.81272 8.87011 3.5625 9.5 3.5625H10.6875V2.375ZM11.875 8.01562C11.875 8.25183 11.7812 8.47837 11.6141 8.64539C11.4471 8.81242 11.2206 8.90625 10.9844 8.90625C10.7482 8.90625 10.5216 8.81242 10.3546 8.64539C10.1876 8.47837 10.0938 8.25183 10.0938 8.01562C10.0938 7.77942 10.1876 7.55288 10.3546 7.38586C10.5216 7.21883 10.7482 7.125 10.9844 7.125C11.2206 7.125 11.4471 7.21883 11.6141 7.38586C11.7812 7.55288 11.875 7.77942 11.875 8.01562ZM3.85938 8.90625C4.09558 8.90625 4.32212 8.81242 4.48914 8.64539C4.65617 8.47837 4.75 8.25183 4.75 8.01562C4.75 7.77942 4.65617 7.55288 4.48914 7.38586C4.32212 7.21883 4.09558 7.125 3.85938 7.125C3.62317 7.125 3.39663 7.21883 3.22961 7.38586C3.06258 7.55288 2.96875 7.77942 2.96875 8.01562C2.96875 8.25183 3.06258 8.47837 3.22961 8.64539C3.39663 8.81242 3.62317 8.90625 3.85938 8.90625ZM4.75 4.45312C4.75 4.68933 4.65617 4.91587 4.48914 5.08289C4.32212 5.24992 4.09558 5.34375 3.85938 5.34375C3.62317 5.34375 3.39663 5.24992 3.22961 5.08289C3.06258 4.91587 2.96875 4.68933 2.96875 4.45312C2.96875 4.21692 3.06258 3.99038 3.22961 3.82336C3.39663 3.65633 3.62317 3.5625 3.85938 3.5625C4.09558 3.5625 4.32212 3.65633 4.48914 3.82336C4.65617 3.99038 4.75 4.21692 4.75 4.45312ZM10.9844 12.4688C11.1013 12.4688 11.2171 12.4457 11.3252 12.401C11.4333 12.3562 11.5314 12.2906 11.6141 12.2079C11.6968 12.1252 11.7624 12.027 11.8072 11.919C11.852 11.8109 11.875 11.6951 11.875 11.5781C11.875 11.4612 11.852 11.3454 11.8072 11.2373C11.7624 11.1292 11.6968 11.0311 11.6141 10.9484C11.5314 10.8657 11.4333 10.8001 11.3252 10.7553C11.2171 10.7105 11.1013 10.6875 10.9844 10.6875C10.7482 10.6875 10.5216 10.7813 10.3546 10.9484C10.1876 11.1154 10.0938 11.3419 10.0938 11.5781C10.0938 11.8143 10.1876 12.0409 10.3546 12.2079C10.5216 12.3749 10.7482 12.4687 10.9844 12.4688ZM4.75 15.1406C4.75 15.3768 4.65617 15.6034 4.48914 15.7704C4.32212 15.9374 4.09558 16.0312 3.85938 16.0312C3.62317 16.0312 3.39663 15.9374 3.22961 15.7704C3.06258 15.6034 2.96875 15.3768 2.96875 15.1406C2.96875 14.9044 3.06258 14.6779 3.22961 14.5109C3.39663 14.3438 3.62317 14.25 3.85938 14.25C4.09558 14.25 4.32212 14.3438 4.48914 14.5109C4.65617 14.6779 4.75 14.9044 4.75 15.1406ZM3.85938 12.4688C3.97633 12.4688 4.09215 12.4457 4.2002 12.401C4.30826 12.3562 4.40644 12.2906 4.48914 12.2079C4.57184 12.1252 4.63745 12.027 4.68221 11.919C4.72696 11.8109 4.75 11.6951 4.75 11.5781C4.75 11.4612 4.72696 11.3454 4.68221 11.2373C4.63745 11.1292 4.57184 11.0311 4.48914 10.9484C4.40644 10.8657 4.30826 10.8001 4.2002 10.7553C4.09215 10.7105 3.97633 10.6875 3.85938 10.6875C3.62317 10.6875 3.39663 10.7813 3.22961 10.9484C3.06258 11.1154 2.96875 11.3419 2.96875 11.5781C2.96875 11.8143 3.06258 12.0409 3.22961 12.2079C3.39663 12.3749 3.62317 12.4687 3.85938 12.4688ZM16.0312 8.01562C16.0312 8.25183 15.9374 8.47837 15.7704 8.64539C15.6034 8.81242 15.3768 8.90625 15.1406 8.90625C14.9044 8.90625 14.6779 8.81242 14.5109 8.64539C14.3438 8.47837 14.25 8.25183 14.25 8.01562C14.25 7.77942 14.3438 7.55288 14.5109 7.38586C14.6779 7.21883 14.9044 7.125 15.1406 7.125C15.3768 7.125 15.6034 7.21883 15.7704 7.38586C15.9374 7.55288 16.0312 7.77942 16.0312 8.01562ZM15.1406 12.4688C15.2576 12.4688 15.3734 12.4457 15.4815 12.401C15.5895 12.3562 15.6877 12.2906 15.7704 12.2079C15.8531 12.1252 15.9187 12.027 15.9635 11.919C16.0082 11.8109 16.0312 11.6951 16.0312 11.5781C16.0312 11.4612 16.0082 11.3454 15.9635 11.2373C15.9187 11.1292 15.8531 11.0311 15.7704 10.9484C15.6877 10.8657 15.5895 10.8001 15.4815 10.7553C15.3734 10.7105 15.2576 10.6875 15.1406 10.6875C14.9044 10.6875 14.6779 10.7813 14.5109 10.9484C14.3438 11.1154 14.25 11.3419 14.25 11.5781C14.25 11.8143 14.3438 12.0409 14.5109 12.2079C14.6779 12.3749 14.9044 12.4687 15.1406 12.4688Z" fill="#677990"/>
</svg>
